<?xml version="1.0"?>
<svg xmlns="http://www.w3.org/2000/svg" viewBox="0 0 1200 420">
  <defs>
    <marker id="arrow" viewBox="0 0 8 8" markerWidth="8" markerHeight="8" refX="8" refY="4" orient="auto" markerUnits="userSpaceOnUse">
      <path d="M0 0L8 4L0 8Z" fill="#f25e3f"/>
    </marker>
  </defs>
  <style>text{font-family:monospace;font-size:13px;letter-spacing:1px}.label{fill:#10231f;font-weight:bold}.sub{fill:#777065;font-size:10px;letter-spacing:0}.box{stroke-width:1.5}.request{fill:#fff1e8;stroke:#f25e3f}.agent{fill:#10231f;stroke:#10231f}.agenttext{fill:#fffaf2;font-size:11px;letter-spacing:.5px}.application{fill:#e9f2e8;stroke:#8eb38d}.repository{fill:#e8eef2;stroke:#86a6b8}.database{fill:#fff4d7;stroke:#d8aa58}.test{fill:#f0ebf5;stroke:#aa91bd}.preview{fill:#e8f1ef;stroke:#7fa9a0}.promote{fill:#fff0e1;stroke:#e18a55}.connector,.line{stroke:#f25e3f;stroke-width:2;fill:none;stroke-linejoin:round}.line{marker-end:url(#arrow)}</style>
  <rect x="20" y="144" width="165" height="112" class="box request"/>
  <text x="42" y="180" class="label">PRODUCT REQUEST</text>
  <text x="42" y="207" class="sub">&#x201C;Add VIP customers&#x201D;</text>
  <text x="42" y="224" class="sub">Natural language intent</text>
  <rect x="270" y="112" width="205" height="176" class="agent"/>
  <text x="300" y="158" class="agenttext">APPILOT CONTROL PLANE</text>
  <text x="300" y="190" class="sub" fill="#f7ae78">Persistent context</text>
  <text x="300" y="210" class="sub" fill="#f7ae78">Plan + execute</text>
  <text x="300" y="230" class="sub" fill="#f7ae78">Validate + approve</text>
  <rect x="560" y="38" width="172" height="106" class="box application"/>
  <text x="588" y="75" class="label">APPLICATION</text>
  <text x="588" y="101" class="sub">CRM template</text>
  <rect x="560" y="157" width="172" height="106" class="box repository"/>
  <text x="588" y="194" class="label">REPOSITORY</text>
  <text x="588" y="220" class="sub">Code + conventions</text>
  <rect x="560" y="276" width="172" height="106" class="box database"/>
  <text x="588" y="313" class="label">DATABASE</text>
  <text x="588" y="339" class="sub">Schema + migrations</text>
  <rect x="815" y="90" width="165" height="106" class="box test"/>
  <text x="840" y="127" class="label">TEST RUNNER</text>
  <text x="840" y="153" class="sub">Unit &#xB7; API &#xB7; UI</text>
  <rect x="815" y="230" width="165" height="106" class="box preview"/>
  <text x="840" y="267" class="label">PREVIEW</text>
  <text x="840" y="293" class="sub">Ephemeral review env</text>
  <rect x="1055" y="158" width="125" height="110" class="box promote"/>
  <text x="1078" y="196" class="label">PROMOTE</text>
  <text x="1078" y="222" class="sub">Human approval</text>
  <path d="M185 200H270" class="line"/>
  <path d="M475 175H515V91H560" class="line"/>
  <path d="M475 210H560" class="line"/>
  <path d="M475 225H515V329H560" class="line"/>
  <path d="M732 91H775V143H815" class="line"/>
  <path d="M732 210H775V283H815" class="line"/>
  <path d="M980 143H1020V283H980" class="connector"/>
  <path d="M1020 213H1055" class="line"/>
</svg>
