<svg xmlns="http://www.w3.org/2000/svg" viewBox="0 0 760 560"><defs><linearGradient id="g" x1="0" y1="0" x2="1" y2="1"><stop stop-color="#f25e3f"/><stop offset="1" stop-color="#f7ae78"/></linearGradient><filter id="s"><feDropShadow dx="0" dy="18" stdDeviation="18" flood-color="#000" flood-opacity=".22"/></filter></defs><g fill="none" stroke="#f8eee0" stroke-opacity=".25"><circle cx="520" cy="260" r="238"/><circle cx="520" cy="260" r="178"/><circle cx="520" cy="260" r="112"/></g><g filter="url(#s)"><rect x="192" y="58" width="420" height="300" rx="2" fill="#f8f1e6"/><rect x="192" y="58" width="420" height="35" fill="#e9ded0"/><circle cx="215" cy="75" r="4" fill="#c9bdaf"/><circle cx="229" cy="75" r="4" fill="#c9bdaf"/><circle cx="243" cy="75" r="4" fill="#c9bdaf"/><rect x="220" y="124" width="110" height="8" fill="#d4c7b8"/><rect x="220" y="145" width="290" height="6" fill="#e0d5c8"/><rect x="220" y="161" width="245" height="6" fill="#e0d5c8"/><rect x="220" y="201" width="102" height="74" fill="#e8dfd2"/><rect x="338" y="201" width="102" height="74" fill="#e8dfd2"/><rect x="456" y="201" width="102" height="74" fill="#e8dfd2"/><path d="M232 256h16v-24h16v15h16v-40h16v49h16M350 258h16v-35h16v23h16v-49h16v61M468 258h16v-18h16v-31h16v12h16v37" stroke="#f25e3f" stroke-width="4"/></g><g filter="url(#s)"><rect x="70" y="310" width="285" height="164" rx="2" fill="#fffaf2"/><rect x="70" y="310" width="285" height="30" fill="#e9ded0"/><rect x="95" y="362" width="170" height="8" fill="#10231f"/><rect x="95" y="382" width="220" height="6" fill="#d8cec2"/><rect x="95" y="398" width="188" height="6" fill="#d8cec2"/><rect x="95" y="431" width="118" height="19" fill="url(#g)"/><path d="m264 429 9 9 17-20" stroke="#10231f" stroke-width="3"/></g><g fill="#f25e3f"><circle cx="120" cy="108" r="5"/><circle cx="646" cy="390" r="5"/><circle cx="570" cy="480" r="4"/></g><path d="M332 360c65 8 91 11 137-17 39-24 59-44 87-77" stroke="url(#g)" stroke-width="2" stroke-dasharray="5 8"/><path d="m547 260 10 5-4 10" fill="none" stroke="#f7ae78" stroke-width="2"/></svg>
